<svg xmlns="http://www.w3.org/2000/svg" height="24" viewBox="0 -960 960 960" width="24"><path fill="#3A86FF" d="M362.639-200h-98.024q-26.654 0-45.634-18.981Q200-237.961 200-264.615v-98.024l-71.616-72.13q-9.461-9.692-13.923-21.357Q110-467.79 110-479.857q0-12.066 4.461-23.874 4.462-11.808 13.923-21.5L200-597.361v-98.024q0-26.654 18.981-45.634Q237.961-760 264.615-760h98.024l72.13-71.616q9.692-9.461 21.357-13.923Q467.79-850 479.857-850q12.066 0 23.874 4.461 11.808 4.462 21.5 13.923L597.361-760h98.024q26.654 0 45.634 18.981Q760-722.039 760-695.385v98.024l71.616 72.13q9.461 9.692 13.923 21.357Q850-492.21 850-480.143q0 12.066-4.461 23.874-4.462 11.808-13.923 21.5L760-362.639v98.024q0 26.654-18.981 45.634Q722.039-200 695.385-200h-98.024l-72.13 71.616q-9.692 9.461-21.357 13.923Q492.21-110 480.143-110q-12.066 0-23.874-4.461-11.808-4.462-21.5-13.923L362.639-200ZM480-310.769q70.231 0 119.731-49.5T649.231-480q0-70.231-49.5-119.731T480-649.231q-70.231 0-119.731 49.5T310.769-480q0 70.231 49.5 119.731T480-310.769Zm0-40q-53.846 0-91.538-37.693-37.693-37.692-37.693-91.538t37.693-91.538q37.692-37.693 91.538-37.693t91.538 37.693q37.693 37.692 37.693 91.538t-37.693 91.538Q533.846-350.769 480-350.769ZM379.936-240l82.372 82.308q6.923 6.923 17.692 6.923t17.692-6.923L580.064-240h115.321q10.769 0 17.692-6.923T720-264.615v-115.321l82.308-82.372q6.923-6.923 6.923-17.692t-6.923-17.692L720-580.064v-115.321q0-10.769-6.923-17.692T695.385-720H580.064l-82.372-82.308q-6.923-6.923-17.692-6.923t-17.692 6.923L379.936-720H264.615q-10.769 0-17.692 6.923T240-695.385v115.321l-82.308 82.372q-6.923 6.923-6.923 17.692t6.923 17.692L240-379.936v115.321q0 10.769 6.923 17.692T264.615-240h115.321ZM480-480Z"/></svg>