<svg xmlns="http://www.w3.org/2000/svg" height="24" viewBox="0 -960 960 960" width="24"><path fill="#FF6F61 " d="M355.385-540h-130.77Q197-540 178.5-558.5 160-577 160-604.615v-130.77Q160-763 178.5-781.5 197-800 224.615-800h130.77Q383-800 401.5-781.5 420-763 420-735.385v130.77Q420-577 401.5-558.5 383-540 355.385-540Zm-130.77-40h130.77q10.769 0 17.692-6.923T380-604.615v-130.77q0-10.769-6.923-17.692T355.385-760h-130.77q-10.769 0-17.692 6.923T200-735.385v130.77q0 10.769 6.923 17.692T224.615-580Zm130.77 420h-130.77Q197-160 178.5-178.5 160-197 160-224.615v-130.77Q160-383 178.5-401.5 197-420 224.615-420h130.77Q383-420 401.5-401.5 420-383 420-355.385v130.77Q420-197 401.5-178.5 383-160 355.385-160Zm-130.77-40h130.77q10.769 0 17.692-6.923T380-224.615v-130.77q0-10.769-6.923-17.692T355.385-380h-130.77q-10.769 0-17.692 6.923T200-355.385v130.77q0 10.769 6.923 17.692T224.615-200Zm510.77-340h-130.77Q577-540 558.5-558.5 540-577 540-604.615v-130.77Q540-763 558.5-781.5 577-800 604.615-800h130.77Q763-800 781.5-781.5 800-763 800-735.385v130.77Q800-577 781.5-558.5 763-540 735.385-540Zm-130.77-40h130.77q10.769 0 17.692-6.923T760-604.615v-130.77q0-10.769-6.923-17.692T735.385-760h-130.77q-10.769 0-17.692 6.923T580-735.385v130.77q0 10.769 6.923 17.692T604.615-580Zm130.77 420h-130.77Q577-160 558.5-178.5 540-197 540-224.615v-130.77Q540-383 558.5-401.5 577-420 604.615-420h130.77Q763-420 781.5-401.5 800-383 800-355.385v130.77Q800-197 781.5-178.5 763-160 735.385-160Zm-130.77-40h130.77q10.769 0 17.692-6.923T760-224.615v-130.77q0-10.769-6.923-17.692T735.385-380h-130.77q-10.769 0-17.692 6.923T580-355.385v130.77q0 10.769 6.923 17.692T604.615-200ZM380-580Zm0 200Zm200-200Zm0 200Z"/></svg>