<?xml version="1.0"?>
<svg width="1000" height="1000" xmlns="http://www.w3.org/2000/svg" xmlns:svg="http://www.w3.org/2000/svg" enable-background="new 0 0 1000 1000" version="1.1" xml:space="preserve">
 <g class="layer">
  <title>Layer 1</title>
  <path d="m763.83,1.27c27.3,-0.27 54.38,-0.24 81.46,-0.34c1.55,-0.01 1.97,0.42 1.97,3.52c-0.05,331.07 -0.05,662.14 0.02,993.21c0,4.07 -1.04,3.35 -2.33,3.35c-60.13,-0.01 -120.26,-0.01 -180.64,-0.01c-0.61,-2.28 0.38,-3.35 1.05,-4.51c14.14,-24.37 27.45,-50.28 41.4,-74.98c4.57,-8.08 9.18,-16.07 13.6,-24.39c13.11,-24.63 26.87,-48.04 40.02,-72.58c0.88,-1.63 1.98,-2.98 2.32,-5.82c-0.01,-0.68 -0.02,-0.96 -0.04,-1.69c-0.08,-15.26 -0.04,-30.09 -0.04,-44.91c0,-252.21 0,-504.42 0,-756.62c0,-3.5 -0.05,-7 0.12,-10.98c0.09,-0.81 0.15,-1.13 0.33,-1.88c0.27,-0.66 0.4,-0.88 0.75,-1.37z" fill="#000000" fill-opacity="0" id="svg_1" opacity="1" transform="matrix(1 0 0 1 0 0)"/>
  <path d="m238.17,1000.73c-27.3,0.27 -54.38,0.24 -81.46,0.34c-1.55,0.01 -1.97,-0.42 -1.97,-3.52c0.05,-331.07 0.05,-662.14 -0.02,-993.21c0,-4.08 1.04,-3.35 2.33,-3.35c60.13,0.01 120.26,0.01 180.64,0.01c0.61,2.28 -0.38,3.35 -1.05,4.51c-13.94,24.03 -27.07,49.58 -40.83,73.92c-4.89,8.65 -9.82,17.24 -14.57,26.16c-12.98,24.38 -26.64,47.52 -39.64,71.87c-0.88,1.63 -1.98,2.98 -2.32,5.82c0.01,0.68 0.02,0.96 0.04,1.69c0.08,14.6 0.04,28.76 0.04,42.92c0,252.87 0,505.74 0,758.61c0,3.5 0.05,7 -0.12,10.99c-0.09,0.8 -0.15,1.12 -0.33,1.87c-0.27,0.66 -0.4,0.88 -0.75,1.37z" fill="#000000" fill-opacity="0" id="svg_2" opacity="1"/>
  <path d="m155.58,1000.24c-0.52,-1.7 -0.63,-3.19 -0.63,-4.69c-0.01,-269.85 -0.01,-539.7 -0.01,-809.55c0,-0.66 0.02,-1.33 0.08,-2.46c2.46,-2.62 5.43,-1.92 8.19,-1.92c55.15,-0.04 110.29,-0.02 165.44,-0.05c2.29,-0.01 4.68,0.53 7.18,-1.1c2.16,-2.85 1.53,-5.78 1.53,-8.54c0.04,-53.76 0.02,-107.51 0.04,-161.26c0,-2.97 -0.37,-6.02 1.36,-9.24c23.26,-0.43 46.28,-0.43 69.77,-0.43c0.9,0.52 1.24,1.08 1.61,2.19c0.46,11.98 0.25,23.48 0.26,34.98c0.03,45.33 0.01,90.66 0.01,136c0,2.5 0.08,5 -0.25,7.98c-0.22,0.79 -0.34,1.1 -0.76,1.8c-2.86,2.01 -5.75,1.6 -8.53,1.61c-19.54,0.11 -39.09,-0.12 -59.04,0.23c-0.96,0.27 -1.39,0.59 -1.86,1.47c-0.46,2.23 -0.34,4.07 -0.34,5.9c0,265.38 0,530.77 -0.02,796.15c0,3.31 0.46,6.68 -1.08,10.3c-1.36,1.08 -2.55,0.87 -3.7,0.87c-59.6,-0.03 -119.19,0.07 -179.25,-0.24z" fill="#FBE224" id="svg_3" opacity="1"/>
  <path d="m411.52,3.07c-0.26,-0.71 -0.37,-1.1 -0.54,-1.78c84.63,-0.29 169.32,-0.29 254.47,-0.29c0.67,0.27 0.88,0.54 1.3,1.26c1.01,2.88 0.78,5.4 0.78,7.89c0.02,266.01 0.02,532.02 0.01,798.03c0,2.33 0.08,4.66 -0.44,7.47c-0.26,0.8 -0.4,1.11 -0.85,1.83c-0.56,0.62 -0.82,0.84 -1.53,1.28c-1.41,0.55 -2.4,0.72 -3.4,0.73c-20.65,0.17 -41.3,0.13 -61.95,0.03c-1.17,-0.01 -2.32,-0.19 -3.88,-0.82c-0.67,-0.47 -0.9,-0.71 -1.35,-1.4c-0.92,-3.42 -0.62,-6.43 -0.62,-9.42c-0.01,-204.73 -0.01,-409.47 -0.01,-614.2c0,-2.5 0.02,-5 -0.08,-7.94c-0.09,-0.71 -0.15,-0.98 -0.32,-1.63c-0.7,-2.59 -2.31,-4.07 -3.84,-5.59c-13.29,-13.3 -26.23,-26.99 -39.97,-39.81c-23.25,-21.69 -44.76,-45.12 -67.9,-66.89c-21.83,-20.52 -42.49,-42.2 -63.92,-63.11c-1.55,-1.51 -3.13,-2.98 -5.16,-4.48c-0.39,-0.44 -0.52,-0.64 -0.8,-1.16z" fill="#000000" fill-opacity="0" id="svg_4" opacity="1" transform="matrix(1 0 0 1 0 0)"/>
  <path d="m338.74,184.38c23.26,-0.17 46.27,-0.21 69.74,-0.21c1.9,1.27 1.83,2.98 1.9,4.64c0.06,1.5 0.03,3 0.03,4.5c0,206.86 0.01,413.71 0,621.02c0.02,1.3 0,2.15 0.28,3.35c0.17,0.6 0.24,0.83 0.46,1.4c0.92,2.06 2.35,3.24 3.63,4.53c13.42,13.43 26.48,27.24 40.35,40.19c23.61,22.06 45.5,45.86 69.01,67.99c21.47,20.2 41.8,41.54 62.9,62.09c1.43,1.39 2.74,2.93 4.9,3.99c0.52,0.29 0.72,0.43 1.16,0.84c0.41,0.75 0.45,1.22 0.12,2c-84.91,0.29 -169.6,0.29 -254.75,0.29c-0.64,-0.15 -0.81,-0.29 -0.81,-0.73c0.23,-2.62 0.33,-4.95 0.33,-7.27c0.01,-266.7 0.01,-533.39 0.01,-800.08c0,-2.33 0.02,-4.66 0.11,-7.46c0.18,-0.62 0.28,-0.78 0.63,-1.08z" fill="#000000" fill-opacity="0" id="svg_5" opacity="1" transform="matrix(1 0 0 1 0 0)"/>
  <path d="m338.75,1c0.25,58.28 0.25,116.56 0.24,174.84c0,1.82 -0.17,3.64 -0.51,5.79c-1.11,1.03 -2.14,0.85 -3.12,0.85c-59.79,-0.04 -119.58,0.1 -179.79,-0.34c9.14,-10.94 19.68,-20.62 29.84,-30.66c45.11,-44.55 90.32,-89.01 135.51,-133.49c5.57,-5.49 11.19,-10.93 16.93,-16.69c0.15,-0.3 0.65,-0.3 0.9,-0.3z" fill="#FCD22E" id="svg_6" opacity="1"/>
  <path d="m846.48,819.82c-9.36,10.11 -19.01,19.96 -28.82,29.66c-21.18,20.95 -42.43,41.82 -63.66,62.71c-29.9,29.41 -59.81,58.81 -89.85,88.51c-0.15,0.3 -0.65,0.3 -0.9,0.3c-1.96,-1.92 -1.85,-4.3 -1.85,-6.62c-0.03,-56.54 -0.03,-113.08 0,-169.62c0,-1.99 -0.05,-4.01 1.33,-6.2c0.34,-0.38 0.23,-0.58 0.22,-0.7c0.29,-0.15 0.59,-0.18 1.33,-0.14c0.74,0.16 1.03,0.24 1.77,0.46c2.75,0.61 5.09,0.4 7.41,0.4c54.94,0.01 109.88,0 164.82,0.03c2.62,0.01 5.35,-0.51 8.2,1.21z" fill="#FCD22E" id="svg_7" opacity="1"/>
  <path d="m662.61,818.06c0.44,60.75 0.41,121.38 0.39,182.47c-23.02,0.47 -46.04,0.47 -69.53,0.47c-0.56,-0.39 -0.65,-0.78 -0.82,-1.46c-1.2,-2.29 -1.06,-4.48 -1.06,-6.64c-0.01,-56.14 -0.01,-112.29 0.01,-168.43c0,-1.99 -0.2,-4.02 1.07,-6.27c23.38,-0.33 46.43,-0.3 69.94,-0.14z" fill="#FBE224" id="svg_8" opacity="1"/>
  <path d="m664.54,2.35c-0.42,-0.5 -0.46,-0.67 -0.52,-1.09c60.67,-0.26 121.36,-0.26 182.51,-0.26c0.58,0.16 0.69,0.32 0.75,0.76c-0.05,0.29 -0.24,0.3 -0.32,0.25c-1.97,1.77 -4.38,1.59 -6.69,1.59c-56.49,0.03 -112.99,0.03 -169.49,0c-1.99,0 -4.01,0.07 -6.24,-1.25z" fill="#FBE438" id="svg_9" opacity="1"/>
  <path d="m337.38,999.99c0.5,0.16 0.54,0.33 0.6,0.75c-60.67,0.26 -121.36,0.26 -182.51,0.26c-0.58,-0.16 -0.69,-0.32 -0.75,-0.76c0.05,-0.29 0.24,-0.29 0.32,-0.24c60.68,0.02 121.28,0.01 182.34,-0.01z" fill="#FBE438" id="svg_10" opacity="1"/>
  <path d="m847.4,1.91c-0.23,-0.03 -0.29,-0.2 -0.37,-0.64c-0.03,-0.27 0.47,-0.27 0.72,-0.27c0.18,0.3 0.04,0.55 -0.35,0.91z" fill="#FFFCE5" id="svg_11" opacity="1"/>
  <path d="m154.6,1000.09c0.23,0.03 0.29,0.2 0.37,0.64c0.03,0.27 -0.47,0.27 -0.72,0.27c-0.18,-0.3 -0.04,-0.55 0.35,-0.91z" fill="#FFFCE5" id="svg_12" opacity="1"/>
  <path d="m664.1,2.48c60.66,-0.47 121.26,-0.48 182.32,-0.51c0.52,1.48 0.63,2.98 0.63,4.47c0.01,269.85 0.01,539.71 0.01,809.56c0,0.66 -0.02,1.33 -0.09,2.46c-0.9,1.2 -1.93,1.02 -2.91,1.02c-59.76,-0.04 -119.53,0.09 -179.7,-0.35c-0.41,-0.28 -0.39,-0.73 -0.39,-0.96c-0.13,-0.37 -0.26,-0.51 -0.27,-0.91c0.18,-2.59 0.29,-4.92 0.29,-7.24c0.01,-266.86 0.01,-533.72 0.01,-800.58c0,-2.17 0.02,-4.33 0.1,-6.96z" fill="#FBE224" id="svg_13" opacity="1"/>
  <path d="m664.18,819.22c23.04,-0.32 46.32,-0.24 69.59,-0.23c37.41,0.02 74.82,-0.01 112.69,-0.05c0.46,0.18 0.47,0.39 0.43,0.9c-32.05,0.26 -64.04,0.2 -96.04,0.17c-27,-0.02 -54,0 -81,-0.02c-1.81,-0.01 -3.62,-0.27 -5.67,-0.77z" fill="#FDEF9F" id="svg_14" opacity="1"/>
  <path d="m155.11,182.16c27.32,-0.26 54.59,-0.19 81.86,-0.17c33.43,0.02 66.85,0 100.77,-0.02c-1.29,1.86 -3.6,0.99 -5.65,0.99c-58.69,0.06 -117.39,0.06 -176.55,0.09c-0.47,-0.17 -0.47,-0.38 -0.43,-0.89z" fill="#FDEF9F" id="svg_15" opacity="1"/>
  <path d="m409.79,816.8c-0.57,-2.13 -0.78,-4.45 -0.78,-6.77c-0.01,-206.14 -0.01,-412.28 -0.01,-618.43c0,-2.16 -0.03,-4.33 -0.05,-6.95c0.02,-0.67 0.05,-0.89 0.62,-1.43c0.76,-0.06 0.97,0.2 1.38,0.93c0.87,3.08 0.66,5.76 0.66,8.42c0.02,204.94 0.02,409.87 -0.01,614.81c0,3.11 0.62,6.37 -1.81,9.42z" fill="#E8D960" id="svg_16" opacity="1"/>
  <path d="m410.25,182.53c-0.37,0.35 -0.75,0.38 -0.95,0.37c-0.18,-59.75 -0.17,-119.48 0,-179.68c0.15,-0.47 0.3,-0.48 0.35,-0.43c1.74,1.74 1.93,3.91 1.93,6.09c0.04,56.48 0.11,112.96 -0.03,169.44c0,0.66 -0.11,1.32 -0.35,2.47c-0.29,0.79 -0.44,1.09 -0.95,1.74z" fill="#FDEF9F" id="svg_17" opacity="1"/>
  <path d="m338.75,184.19c0.15,0.29 -0.01,0.49 -0.39,0.72c-0.29,-0.28 -0.18,-0.57 0.39,-0.72z" fill="#FFFCE5" id="svg_18" opacity="1"/>
  <path d="m410.46,182.26c-0.42,-53.04 -0.44,-105.77 -0.48,-158.5c0,-6.66 -0.04,-13.31 -0.17,-20.44c2.33,0.38 3.94,2.29 5.68,4.01c41.72,41.16 83.43,82.31 125.14,123.47c17.07,16.84 34.12,33.69 51.26,50.86c-1.67,2.07 -3.92,1.73 -6.05,1.73c-56.54,0.03 -113.09,0.03 -169.64,0.01c-1.81,0 -3.67,0.15 -5.74,-1.14z" fill="#FCD22D" id="svg_19" opacity="1"/>
  <path d="m591.99,183.02c1.38,1.25 0.99,2.96 0.99,4.6c0.02,209.47 0.01,418.94 -0.01,628.88c-0.35,0.52 -0.68,0.57 -1.34,0.24c-1.48,-2.73 -1.24,-5.27 -1.24,-7.75c-0.02,-205.96 -0.02,-411.92 -0.01,-617.88c0,-2 -0.06,-4.01 0.5,-6.47c0.34,-0.77 0.51,-1.05 1.11,-1.62z" fill="#D9CD72" id="svg_20" opacity="1"/>
  <path d="m591.64,817.07c0.5,-0.02 0.91,-0.06 1.11,-0.08c0.21,-0.03 0.3,0.4 0.28,0.62c-0.03,59.21 -0.03,118.21 -0.04,177.2c0,1.16 -0.08,2.33 -0.27,3.97c-0.15,0.47 -0.32,0.48 -0.38,0.43c-2.69,-2.64 -1.92,-5.98 -1.92,-9.05c-0.05,-52.77 -0.03,-105.55 -0.05,-158.33c0,-11.09 0.74,-10.2 -10.32,-10.2c-53.44,-0.02 -106.88,-0.01 -160.32,-0.02c-2.98,-0.01 -6.02,0.38 -9.26,-1.34c-0.43,-0.23 -0.57,-0.66 -0.57,-0.88c2.61,-2.8 5.95,-1.96 9.01,-1.96c52.92,-0.06 105.85,-0.05 158.77,-0.04c4.49,0 8.99,-0.01 13.96,-0.32z" fill="#FDEF9F" id="svg_21" opacity="1"/>
  <path d="m410.02,182.18c60.37,-0.22 120.7,-0.2 181.49,-0.19c0.46,-0.01 0.73,0.34 0.81,0.54c0.09,0.21 -0.17,0.37 -0.3,0.45c-2.05,1.84 -4.45,1.62 -6.75,1.62c-56.19,0.03 -112.38,0.03 -168.56,0.01c-1.99,-0.01 -4.01,0.07 -6.24,-1.23c-0.4,-0.31 -0.49,-0.4 -0.54,-0.45c-0.05,-0.05 0.05,-0.51 0.09,-0.75z" fill="#E8D960" id="svg_22" opacity="1"/>
  <path d="m663.64,817.08c0.18,-0.08 0.3,0.38 0.31,0.62c-0.16,0.25 -0.34,0.26 -0.76,0.16c-0.13,-0.36 0.04,-0.55 0.45,-0.78z" fill="#FFFCE5" id="svg_23" opacity="1"/>
  <path d="m410.04,183.53c60.33,-0.48 120.64,-0.5 181.4,-0.49c0.49,2.36 0.56,4.69 0.56,7.02c0,206.52 0,413.04 0,619.56c0,2.16 0.03,4.33 0.09,6.96c-0.8,3.75 -3.49,2.35 -5.34,2.35c-56.64,0.08 -113.27,0.06 -169.91,0.07c-2,0 -3.99,0.03 -6.47,0.1c-0.68,-0.47 -0.89,-0.99 -1.07,-1.81c1.28,-2.3 0.67,-4.53 0.67,-6.64c0.04,-208.89 0.04,-417.77 0.07,-627.12z" fill="#FBE224" id="svg_24" opacity="1"/>
  <path d="m410.11,820.36c58.89,-0.33 117.86,-0.3 176.83,-0.45c4.32,-0.01 5.16,1.39 5.15,5.39c-0.1,57.63 -0.04,115.27 0.09,173.37c-2.22,0.38 -3.21,-1.6 -4.57,-2.94c-41.86,-41.25 -83.7,-82.53 -125.53,-123.82c-17.3,-17.07 -34.59,-34.15 -51.97,-51.55z" fill="#FCD22D" id="svg_25" opacity="1"/>
 </g>
</svg>