<?xml version="1.0" standalone="no"?>
<!DOCTYPE svg PUBLIC "-//W3C//DTD SVG 20010904//EN"
 "http://www.w3.org/TR/2001/REC-SVG-20010904/DTD/svg10.dtd">
<svg version="1.0" xmlns="http://www.w3.org/2000/svg"
 width="58.000000pt" height="48.000000pt" viewBox="0 0 58.000000 48.000000"
 preserveAspectRatio="xMidYMid meet">

<g transform="translate(0.000000,48.000000) scale(0.100000,-0.100000)"
fill="#000000" stroke="none">
<path d="M244 426 c-28 -43 -42 -55 -56 -51 -19 5 -35 9 -81 19 l-29 7 7 -64
7 -64 -47 -13 -48 -13 29 -26 c27 -24 29 -31 25 -81 -2 -36 -11 -66 -27 -89
-13 -20 -24 -39 -24 -43 0 -5 130 -8 290 -8 160 0 290 3 290 8 0 4 -11 23 -24
42 -31 47 -29 133 4 180 12 17 20 33 17 36 -2 2 -24 8 -48 12 l-44 8 3 62 c1
34 -1 62 -6 62 -5 0 -31 -7 -58 -15 -27 -8 -55 -15 -61 -15 -7 0 -28 23 -47
51 l-34 51 -38 -56z"/>
</g>
</svg>
